<svg width="20" height="23" viewBox="0 0 20 23" fill="none" xmlns="http://www.w3.org/2000/svg">
<path d="M14 5.17822V4.37822C14 3.25812 14 2.69807 13.782 2.27024C13.5903 1.89392 13.2843 1.58796 12.908 1.39621C12.4802 1.17822 11.9201 1.17822 10.8 1.17822H9.2C8.07989 1.17822 7.51984 1.17822 7.09202 1.39621C6.71569 1.58796 6.40973 1.89392 6.21799 2.27024C6 2.69807 6 3.25812 6 4.37822V5.17822M8 10.6782V15.6782M12 10.6782V15.6782M1 5.17822H19M17 5.17822V16.3782C17 18.0584 17 18.8985 16.673 19.5402C16.3854 20.1047 15.9265 20.5636 15.362 20.8512C14.7202 21.1782 13.8802 21.1782 12.2 21.1782H7.8C6.11984 21.1782 5.27976 21.1782 4.63803 20.8512C4.07354 20.5636 3.6146 20.1047 3.32698 19.5402C3 18.8985 3 18.0584 3 16.3782V5.17822" stroke="#000" stroke-width="2" stroke-linecap="round" stroke-linejoin="round"/>
</svg>
