<svg width="20" height="21" viewBox="0 0 20 21" fill="none" xmlns="http://www.w3.org/2000/svg">
<path d="M5 1.17822V4.57822C5 5.13828 5 5.4183 5.10899 5.63221C5.20487 5.82038 5.35785 5.97336 5.54601 6.06923C5.75992 6.17822 6.03995 6.17822 6.6 6.17822H13.4C13.9601 6.17822 14.2401 6.17822 14.454 6.06923C14.6422 5.97336 14.7951 5.82038 14.891 5.63221C15 5.4183 15 5.13828 15 4.57822V2.17822M15 19.1782V12.7782C15 12.2182 15 11.9381 14.891 11.7242C14.7951 11.5361 14.6422 11.3831 14.454 11.2872C14.2401 11.1782 13.9601 11.1782 13.4 11.1782H6.6C6.03995 11.1782 5.75992 11.1782 5.54601 11.2872C5.35785 11.3831 5.20487 11.5361 5.10899 11.7242C5 11.9381 5 12.2182 5 12.7782V19.1782M19 7.50371V14.3782C19 16.0584 19 16.8985 18.673 17.5402C18.3854 18.1047 17.9265 18.5636 17.362 18.8512C16.7202 19.1782 15.8802 19.1782 14.2 19.1782H5.8C4.11984 19.1782 3.27976 19.1782 2.63803 18.8512C2.07354 18.5636 1.6146 18.1047 1.32698 17.5402C1 16.8985 1 16.0584 1 14.3782V5.97822C1 4.29807 1 3.45799 1.32698 2.81625C1.6146 2.25176 2.07354 1.79282 2.63803 1.5052C3.27976 1.17822 4.11984 1.17822 5.8 1.17822H12.6745C13.1637 1.17822 13.4083 1.17822 13.6385 1.23348C13.8425 1.28248 14.0376 1.36328 14.2166 1.47294C14.4184 1.59663 14.5914 1.76958 14.9373 2.11548L18.0627 5.24097C18.4086 5.58687 18.5816 5.75982 18.7053 5.96165C18.8149 6.1406 18.8957 6.33569 18.9447 6.53976C19 6.76993 19 7.01452 19 7.50371Z" stroke="#010101" stroke-width="2" stroke-linecap="round" stroke-linejoin="round"/>
</svg>
